<?xml version="1.0" encoding="UTF-8" standalone="no"?>
<svg
   width="512"
   height="512"
   viewBox="0 0 512 512"
   version="1.1"
   id="svg1"
   xml:space="preserve"
   xmlns="http://www.w3.org/2000/svg"
   xmlns:svg="http://www.w3.org/2000/svg"><defs
   id="defs1" />
    <path
   d="M 353.72195,215.25561 H 209.58867 q -15.78845,0 -27.50246,9.93145 -11.71401,9.93144 -11.71401,25.21059 v 66.71894 l 20.11754,-66.9736 q 2.03722,-6.62096 7.51224,-10.56807 5.47503,-3.94711 12.096,-3.94711 h 131.40065 q 10.44075,0 16.42509,8.2762 5.98433,8.2762 3.18315,17.953 l -18.33497,61.11658 q -2.03722,6.62096 -7.51225,10.56808 -5.47503,3.94711 -12.09599,3.94711 H 170.3722 q -8.40354,0 -14.38787,-5.98433 Q 150,325.52012 150,317.11659 V 194.88342 q 0,-8.40354 5.98433,-14.38787 5.98433,-5.98433 14.38787,-5.98433 h 52.71305 q 4.07444,0 7.7669,1.52791 3.69246,1.52792 6.49364,4.3291 l 14.51519,14.51519 h 81.48878 q 8.40353,0 14.38786,5.98433 5.98433,5.98433 5.98433,14.38786 z"
   id="path1"
   style="fill:#ffffff;stroke-width:0.254652" /></svg>
